<?xml version="1.0" encoding="utf-8"?>
<!-- Generator: Adobe Illustrator 25.4.1, SVG Export Plug-In . SVG Version: 6.00 Build 0)  -->
<svg version="1.1"
	 id="Layer_1" shape-rendering="geometricPrecision" image-rendering="optimizeQuality" text-rendering="geometricPrecision"
	 xmlns="http://www.w3.org/2000/svg" xmlns:xlink="http://www.w3.org/1999/xlink" x="0px" y="0px" viewBox="0 0 1333.3 1333.3"
	 style="enable-background:new 0 0 1333.3 1333.3;" xml:space="preserve">
<style type="text/css">
	.st0{clip-path:url(#SVGID_00000098934719710319283960000013702118560213893819_);}
	.st1{clip-path:url(#SVGID_00000075128338160098237210000007832722658426801592_);}
	.st2{clip-path:url(#SVGID_00000165216172064160822280000009453922081540478337_);}
	.st3{fill:url(#SVGID_00000139985974810986005750000007385914875271047862_);}
	.st4{clip-path:url(#SVGID_00000093859021799189858730000009092222824960112808_);}
	.st5{clip-path:url(#SVGID_00000127016357643096374910000017591527711899905192_);}
	.st6{clip-path:url(#SVGID_00000115481916789225768570000015115183037781654692_);}
	.st7{fill:url(#SVGID_00000023270256985232186600000011212551979737909426_);}
</style>
<g id="surface1">
	<g>
		<defs>
			<rect id="SVGID_1_" x="30.7" y="249.2" width="1261.8" height="382.1"/>
		</defs>
		<clipPath id="SVGID_00000024715370810923927650000018408796938468668342_">
			<use xlink:href="#SVGID_1_"  style="overflow:visible;"/>
		</clipPath>
		<g style="clip-path:url(#SVGID_00000024715370810923927650000018408796938468668342_);">
			<g>
				<defs>
					<path id="SVGID_00000129187915188767806390000013826304405434684596_" d="M886.1,580.3c-8.8,5.8-21.9,10.2-37.9,10.2
						c-24.8,0-48.1-2.9-71.5-10.2c-5.8-1.5-10.2-2.9-13.1-2.9c-4.4,0-5.8,2.9-5.8,8.7v14.6c0,4.4,1.5,7.3,2.9,10.2
						c1.5,1.5,4.4,4.4,8.8,5.8c23.3,10.2,49.6,14.6,78.7,14.6c30.6,0,53.9-7.3,72.9-21.9c19-14.6,27.7-33.5,27.7-58.3
						c0-17.5-4.4-30.6-13.1-42.3c-8.8-10.2-23.3-20.4-43.7-27.7l-40.8-16c-16-5.8-27.7-11.7-32.1-17.5c-5.9-5.8-8.8-11.7-8.8-21.9
						c0-21.9,16-33.5,49.6-33.5c19,0,37.9,2.9,55.4,8.8c5.8,1.5,10.2,2.9,11.7,2.9c4.4,0,7.3-2.9,7.3-8.7v-14.6
						c0-4.4-1.5-7.3-2.9-10.2c-1.4-2.9-4.4-4.4-8.7-5.8c-21.9-7.3-43.7-11.7-65.6-11.7c-27.7,0-51,7.3-68.5,20.4
						c-17.5,13.1-26.2,32.1-26.2,53.9c0,33.5,18.9,58.3,56.9,72.9l43.7,16c14.6,5.9,23.3,10.2,29.2,16.1s7.3,11.7,7.3,20.4
						C899.2,564.3,894.8,574.5,886.1,580.3z M1042.1,261c-5.8-5.8-14.6-8.7-24.8-8.7c-10.2,0-17.5,2.9-23.3,8.7
						c-5.8,5.9-8.7,13.1-8.7,21.9s2.9,17.5,8.7,21.9c5.8,5.9,13.1,8.8,23.3,8.8c10.2,0,17.5-2.9,23.3-8.8c5.8-5.8,8.8-13.1,8.8-21.9
						S1047.9,265.4,1042.1,261z M1033.3,360.2h-30.6c-7.3,0-10.2,2.9-10.2,10.2v242c0,7.3,2.9,10.2,10.2,10.2h30.6
						c7.3,0,10.2-2.9,10.2-10.2v-242C1043.5,364.6,1040.6,360.2,1033.3,360.2z M1170.4,418.5c13.1-14.6,33.5-21.9,62.7-21.9
						c14.6,0,29.1,1.4,42.3,5.8c4.4,1.4,5.8,1.4,8.8,1.4c4.4,0,7.3-2.9,7.3-10.2v-14.6c0-4.4-1.5-8.8-2.9-10.2
						c-1.5-1.5-4.4-4.4-7.3-5.8c-19-4.4-37.9-8.8-55.4-8.8c-40.8,0-71.4,11.7-94.8,36.5c-21.9,23.3-33.5,58.3-33.5,102
						s10.2,77.3,32.1,100.6c21.9,23.3,52.5,35,93.3,35c21.9,0,42.3-2.9,58.3-10.2c4.4-1.5,7.3-2.9,8.8-5.8c1.5-1.5,1.5-5.8,1.5-10.2
						v-14.6c0-7.3-2.9-10.2-7.3-10.2c-1.5,0-4.4,0-7.3,1.4c-16,4.4-32.1,7.3-46.7,7.3c-27.7,0-48.1-7.3-61.2-21.9
						c-13.1-14.6-19-37.9-19-68.5v-7.3C1151.4,456.4,1157.3,433.1,1170.4,418.5z M380.2,622.6h30.6c7.3,0,10.2-2.9,10.2-10.2V430.2
						c0-24.8-5.8-43.7-19-56.8c-13.1-13.1-30.6-20.4-55.4-20.4c-33.5,0-68.5,11.7-102,36.4c-11.7-24.8-33.5-36.4-65.6-36.4
						s-64.1,11.7-96.2,33.5l-2.9-16c0-4.4-1.5-5.8-4.4-7.3c-1.5-1.5-4.4-1.5-7.3-1.5H44.9c-7.3,0-10.2,2.9-10.2,10.2v242
						c0,7.3,2.9,10.2,10.2,10.2h30.6c7.3,0,10.2-2.9,10.2-10.2V417c24.8-14.6,49.6-23.3,75.8-23.3c14.6,0,24.8,4.4,30.6,13.1
						c5.8,8.8,10.2,20.4,10.2,37.9v167.7c0,7.3,2.9,10.2,10.2,10.2h30.6c7.3,0,10.2-2.9,10.2-10.2V424.3c0-2.9,0-5.8,0-7.3
						c26.2-16,51-23.3,75.8-23.3c14.6,0,24.8,4.4,30.6,13.1s10.2,20.4,10.2,37.9v167.7C370,619.7,372.9,622.6,380.2,622.6z
						 M657.2,370.4v193.9c-24.8,16-49.6,24.8-74.4,24.8c-16,0-27.7-4.4-35-13.1c-7.3-8.8-10.2-21.9-10.2-40.8V370.4
						c0-7.3-2.9-10.2-10.2-10.2h-30.6c-7.3,0-10.2,2.9-10.2,10.2v180.8c0,24.8,5.8,45.2,19,58.3c13.1,13.1,32.1,20.4,56.9,20.4
						c33.5,0,67.1-11.7,99.1-35l2.9,17.5c0,4.4,1.5,5.8,4.4,7.3c1.5,1.5,4.4,1.5,8.7,1.5h21.9c7.3,0,10.2-2.9,10.2-10.2V370.4
						c0-7.3-2.9-10.2-10.2-10.2h-30.6C660.1,360.2,657.2,364.6,657.2,370.4z"/>
				</defs>
				<clipPath id="SVGID_00000065050483875373017430000003860250548527493300_">
					<use xlink:href="#SVGID_00000129187915188767806390000013826304405434684596_"  style="overflow:visible;"/>
				</clipPath>
				<g style="clip-path:url(#SVGID_00000065050483875373017430000003860250548527493300_);">
					<g>
						<defs>
							<path id="SVGID_00000137841878643372951280000004991653303503326124_" d="M886.1,580.3c-8.8,5.8-21.9,10.2-37.9,10.2
								c-24.8,0-48.1-2.9-71.5-10.2c-5.8-1.5-10.2-2.9-13.1-2.9c-4.4,0-5.8,2.9-5.8,8.7v14.6c0,4.4,1.5,7.3,2.9,10.2
								c1.5,1.5,4.4,4.4,8.8,5.8c23.3,10.2,49.6,14.6,78.7,14.6c30.6,0,53.9-7.3,72.9-21.9c19-14.6,27.7-33.5,27.7-58.3
								c0-17.5-4.4-30.6-13.1-42.3c-8.8-10.2-23.3-20.4-43.7-27.7l-40.8-16c-16-5.8-27.7-11.7-32.1-17.5c-5.9-5.8-8.8-11.7-8.8-21.9
								c0-21.9,16-33.5,49.6-33.5c19,0,37.9,2.9,55.4,8.8c5.8,1.5,10.2,2.9,11.7,2.9c4.4,0,7.3-2.9,7.3-8.7v-14.6
								c0-4.4-1.5-7.3-2.9-10.2c-1.4-2.9-4.4-4.4-8.7-5.8c-21.9-7.3-43.7-11.7-65.6-11.7c-27.7,0-51,7.3-68.5,20.4
								c-17.5,13.1-26.2,32.1-26.2,53.9c0,33.5,18.9,58.3,56.9,72.9l43.7,16c14.6,5.9,23.3,10.2,29.2,16.1s7.3,11.7,7.3,20.4
								C899.2,564.3,894.8,574.5,886.1,580.3z M1042.1,261c-5.8-5.8-14.6-8.7-24.8-8.7c-10.2,0-17.5,2.9-23.3,8.7
								c-5.8,5.9-8.7,13.1-8.7,21.9s2.9,17.5,8.7,21.9c5.8,5.9,13.1,8.8,23.3,8.8c10.2,0,17.5-2.9,23.3-8.8
								c5.8-5.8,8.8-13.1,8.8-21.9S1047.9,265.4,1042.1,261z M1033.3,360.2h-30.6c-7.3,0-10.2,2.9-10.2,10.2v242
								c0,7.3,2.9,10.2,10.2,10.2h30.6c7.3,0,10.2-2.9,10.2-10.2v-242C1043.5,364.6,1040.6,360.2,1033.3,360.2z M1170.4,418.5
								c13.1-14.6,33.5-21.9,62.7-21.9c14.6,0,29.1,1.4,42.3,5.8c4.4,1.4,5.8,1.4,8.8,1.4c4.4,0,7.3-2.9,7.3-10.2v-14.6
								c0-4.4-1.5-8.8-2.9-10.2c-1.5-1.5-4.4-4.4-7.3-5.8c-19-4.4-37.9-8.8-55.4-8.8c-40.8,0-71.4,11.7-94.8,36.5
								c-21.9,23.3-33.5,58.3-33.5,102s10.2,77.3,32.1,100.6c21.9,23.3,52.5,35,93.3,35c21.9,0,42.3-2.9,58.3-10.2
								c4.4-1.5,7.3-2.9,8.8-5.8c1.5-1.5,1.5-5.8,1.5-10.2v-14.6c0-7.3-2.9-10.2-7.3-10.2c-1.5,0-4.4,0-7.3,1.4
								c-16,4.4-32.1,7.3-46.7,7.3c-27.7,0-48.1-7.3-61.2-21.9c-13.1-14.6-19-37.9-19-68.5v-7.3
								C1151.4,456.4,1157.3,433.1,1170.4,418.5z M380.2,622.6h30.6c7.3,0,10.2-2.9,10.2-10.2V430.2c0-24.8-5.8-43.7-19-56.8
								c-13.1-13.1-30.6-20.4-55.4-20.4c-33.5,0-68.5,11.7-102,36.4c-11.7-24.8-33.5-36.4-65.6-36.4s-64.1,11.7-96.2,33.5l-2.9-16
								c0-4.4-1.5-5.8-4.4-7.3c-1.5-1.5-4.4-1.5-7.3-1.5H44.9c-7.3,0-10.2,2.9-10.2,10.2v242c0,7.3,2.9,10.2,10.2,10.2h30.6
								c7.3,0,10.2-2.9,10.2-10.2V417c24.8-14.6,49.6-23.3,75.8-23.3c14.6,0,24.8,4.4,30.6,13.1c5.8,8.8,10.2,20.4,10.2,37.9v167.7
								c0,7.3,2.9,10.2,10.2,10.2h30.6c7.3,0,10.2-2.9,10.2-10.2V424.3c0-2.9,0-5.8,0-7.3c26.2-16,51-23.3,75.8-23.3
								c14.6,0,24.8,4.4,30.6,13.1s10.2,20.4,10.2,37.9v167.7C370,619.7,372.9,622.6,380.2,622.6z M657.2,370.4v193.9
								c-24.8,16-49.6,24.8-74.4,24.8c-16,0-27.7-4.4-35-13.1c-7.3-8.8-10.2-21.9-10.2-40.8V370.4c0-7.3-2.9-10.2-10.2-10.2h-30.6
								c-7.3,0-10.2,2.9-10.2,10.2v180.8c0,24.8,5.8,45.2,19,58.3c13.1,13.1,32.1,20.4,56.9,20.4c33.5,0,67.1-11.7,99.1-35l2.9,17.5
								c0,4.4,1.5,5.8,4.4,7.3c1.5,1.5,4.4,1.5,8.7,1.5h21.9c7.3,0,10.2-2.9,10.2-10.2V370.4c0-7.3-2.9-10.2-10.2-10.2h-30.6
								C660.1,360.2,657.2,364.6,657.2,370.4"/>
						</defs>
						<clipPath id="SVGID_00000084532377890805057630000013326695014922940805_">
							<use xlink:href="#SVGID_00000137841878643372951280000004991653303503326124_"  style="overflow:visible;"/>
						</clipPath>
						<g style="clip-path:url(#SVGID_00000084532377890805057630000013326695014922940805_);">
							
								<linearGradient id="SVGID_00000047049861428685402500000015395385525732320191_" gradientUnits="userSpaceOnUse" x1="34.6505" y1="441.8386" x2="1291.4158" y2="441.8386">
								<stop  offset="0" style="stop-color:#0C6BB3"/>
								<stop  offset="7.812500e-03" style="stop-color:#0C6BB3"/>
								<stop  offset="1.562500e-02" style="stop-color:#0D6CB4"/>
								<stop  offset="2.343750e-02" style="stop-color:#0D6DB4"/>
								<stop  offset="3.125000e-02" style="stop-color:#0E6DB5"/>
								<stop  offset="3.906250e-02" style="stop-color:#0E6EB5"/>
								<stop  offset="4.687500e-02" style="stop-color:#0F6FB5"/>
								<stop  offset="5.468750e-02" style="stop-color:#0F6FB6"/>
								<stop  offset="6.250000e-02" style="stop-color:#0F70B6"/>
								<stop  offset="7.031250e-02" style="stop-color:#1071B7"/>
								<stop  offset="7.812500e-02" style="stop-color:#1071B7"/>
								<stop  offset="8.593750e-02" style="stop-color:#1172B8"/>
								<stop  offset="9.375000e-02" style="stop-color:#1172B8"/>
								<stop  offset="0.1016" style="stop-color:#1273B8"/>
								<stop  offset="0.1094" style="stop-color:#1274B9"/>
								<stop  offset="0.1172" style="stop-color:#1374B9"/>
								<stop  offset="0.125" style="stop-color:#1375BA"/>
								<stop  offset="0.1328" style="stop-color:#1476BA"/>
								<stop  offset="0.1406" style="stop-color:#1476BB"/>
								<stop  offset="0.1484" style="stop-color:#1477BB"/>
								<stop  offset="0.1562" style="stop-color:#1578BB"/>
								<stop  offset="0.1641" style="stop-color:#1578BC"/>
								<stop  offset="0.1719" style="stop-color:#1679BC"/>
								<stop  offset="0.1797" style="stop-color:#167ABD"/>
								<stop  offset="0.1875" style="stop-color:#177ABD"/>
								<stop  offset="0.1953" style="stop-color:#177BBE"/>
								<stop  offset="0.2031" style="stop-color:#187CBE"/>
								<stop  offset="0.2109" style="stop-color:#187CBE"/>
								<stop  offset="0.2188" style="stop-color:#197DBF"/>
								<stop  offset="0.2266" style="stop-color:#197DBF"/>
								<stop  offset="0.2344" style="stop-color:#1A7EC0"/>
								<stop  offset="0.2422" style="stop-color:#1A7FC0"/>
								<stop  offset="0.25" style="stop-color:#1A7FC1"/>
								<stop  offset="0.2578" style="stop-color:#1B80C1"/>
								<stop  offset="0.2656" style="stop-color:#1B81C1"/>
								<stop  offset="0.2734" style="stop-color:#1C81C2"/>
								<stop  offset="0.2812" style="stop-color:#1C82C2"/>
								<stop  offset="0.2891" style="stop-color:#1D83C3"/>
								<stop  offset="0.2969" style="stop-color:#1D83C3"/>
								<stop  offset="0.3047" style="stop-color:#1E84C4"/>
								<stop  offset="0.3125" style="stop-color:#1E85C4"/>
								<stop  offset="0.3203" style="stop-color:#1F86C5"/>
								<stop  offset="0.3281" style="stop-color:#2087C6"/>
								<stop  offset="0.3359" style="stop-color:#2087C6"/>
								<stop  offset="0.3438" style="stop-color:#2188C7"/>
								<stop  offset="0.3516" style="stop-color:#2189C7"/>
								<stop  offset="0.3594" style="stop-color:#228AC8"/>
								<stop  offset="0.3672" style="stop-color:#238AC8"/>
								<stop  offset="0.375" style="stop-color:#238BC9"/>
								<stop  offset="0.3828" style="stop-color:#248CCA"/>
								<stop  offset="0.3906" style="stop-color:#248DCA"/>
								<stop  offset="0.3984" style="stop-color:#258ECB"/>
								<stop  offset="0.4062" style="stop-color:#268ECB"/>
								<stop  offset="0.4141" style="stop-color:#268FCC"/>
								<stop  offset="0.4219" style="stop-color:#2790CC"/>
								<stop  offset="0.4297" style="stop-color:#2791CD"/>
								<stop  offset="0.4375" style="stop-color:#2891CE"/>
								<stop  offset="0.4453" style="stop-color:#2992CE"/>
								<stop  offset="0.4531" style="stop-color:#2993CF"/>
								<stop  offset="0.4609" style="stop-color:#2A94CF"/>
								<stop  offset="0.4688" style="stop-color:#2A95D0"/>
								<stop  offset="0.4766" style="stop-color:#2B95D0"/>
								<stop  offset="0.4844" style="stop-color:#2C96D1"/>
								<stop  offset="0.4922" style="stop-color:#2C97D2"/>
								<stop  offset="0.5" style="stop-color:#2D98D2"/>
								<stop  offset="0.5078" style="stop-color:#2D98D3"/>
								<stop  offset="0.5156" style="stop-color:#2E99D3"/>
								<stop  offset="0.5234" style="stop-color:#2F9AD4"/>
								<stop  offset="0.5312" style="stop-color:#2F9BD4"/>
								<stop  offset="0.5391" style="stop-color:#309CD5"/>
								<stop  offset="0.5469" style="stop-color:#309CD6"/>
								<stop  offset="0.5547" style="stop-color:#319DD6"/>
								<stop  offset="0.5625" style="stop-color:#329ED7"/>
								<stop  offset="0.5703" style="stop-color:#329FD7"/>
								<stop  offset="0.5781" style="stop-color:#339FD8"/>
								<stop  offset="0.5859" style="stop-color:#33A0D8"/>
								<stop  offset="0.5938" style="stop-color:#34A1D9"/>
								<stop  offset="0.6016" style="stop-color:#35A2DA"/>
								<stop  offset="0.6094" style="stop-color:#35A3DA"/>
								<stop  offset="0.6172" style="stop-color:#36A3DB"/>
								<stop  offset="0.625" style="stop-color:#36A4DB"/>
								<stop  offset="0.6328" style="stop-color:#37A5DC"/>
								<stop  offset="0.6406" style="stop-color:#38A6DC"/>
								<stop  offset="0.6484" style="stop-color:#38A6DD"/>
								<stop  offset="0.6562" style="stop-color:#39A7DE"/>
								<stop  offset="0.6641" style="stop-color:#39A8DE"/>
								<stop  offset="0.6719" style="stop-color:#3AA9DF"/>
								<stop  offset="0.6797" style="stop-color:#3BAADF"/>
								<stop  offset="0.6875" style="stop-color:#3BAAE0"/>
								<stop  offset="0.6953" style="stop-color:#3CABE0"/>
								<stop  offset="0.7031" style="stop-color:#3CACE1"/>
								<stop  offset="0.7109" style="stop-color:#3DADE2"/>
								<stop  offset="0.7188" style="stop-color:#3EADE2"/>
								<stop  offset="0.7266" style="stop-color:#3EAEE3"/>
								<stop  offset="0.7344" style="stop-color:#3FAFE3"/>
								<stop  offset="0.7422" style="stop-color:#3FB0E4"/>
								<stop  offset="0.75" style="stop-color:#40B1E4"/>
								<stop  offset="0.7578" style="stop-color:#41B1E5"/>
								<stop  offset="0.7656" style="stop-color:#41B2E6"/>
								<stop  offset="0.7734" style="stop-color:#42B3E6"/>
								<stop  offset="0.7812" style="stop-color:#42B4E7"/>
								<stop  offset="0.7891" style="stop-color:#43B4E7"/>
								<stop  offset="0.7969" style="stop-color:#44B5E8"/>
								<stop  offset="0.8047" style="stop-color:#44B6E8"/>
								<stop  offset="0.8125" style="stop-color:#45B7E9"/>
								<stop  offset="0.8203" style="stop-color:#45B8EA"/>
								<stop  offset="0.8281" style="stop-color:#46B8EA"/>
								<stop  offset="0.8359" style="stop-color:#47B9EB"/>
								<stop  offset="0.8438" style="stop-color:#47BAEB"/>
								<stop  offset="0.8516" style="stop-color:#48BBEC"/>
								<stop  offset="0.8594" style="stop-color:#48BBEC"/>
								<stop  offset="0.8672" style="stop-color:#49BCED"/>
								<stop  offset="0.875" style="stop-color:#4ABDEE"/>
								<stop  offset="0.8828" style="stop-color:#4ABEEE"/>
								<stop  offset="0.8906" style="stop-color:#4BBFEF"/>
								<stop  offset="0.9062" style="stop-color:#4BBFEF"/>
								<stop  offset="0.9375" style="stop-color:#4BBFEF"/>
								<stop  offset="1" style="stop-color:#4BBFEF"/>
							</linearGradient>
							<path style="fill:url(#SVGID_00000047049861428685402500000015395385525732320191_);" d="M34.7,631.4V252.3h1256.8v379.1
								H34.7z"/>
						</g>
					</g>
				</g>
			</g>
		</g>
	</g>
	<g>
		<defs>
			<rect id="SVGID_00000003095801241120406450000006195285964566101950_" x="23.5" y="717.9" width="1297.8" height="295.6"/>
		</defs>
		<clipPath id="SVGID_00000037684240659774044710000001257944270381231527_">
			<use xlink:href="#SVGID_00000003095801241120406450000006195285964566101950_"  style="overflow:visible;"/>
		</clipPath>
		<g style="clip-path:url(#SVGID_00000037684240659774044710000001257944270381231527_);">
			<g>
				<defs>
					<path id="SVGID_00000038412569500077158450000015988121802326740118_" d="M1236,953.6c75.8-64.2,96.2-196.8,80.2-217.2
						c-7.3-8.7-42.3-17.5-86-17.5c-46.6,0-102,10.2-144.3,39.4c-13.1,8.7-10.2,20.4,2.9,19c45.2-5.9,147.3-17.5,166.2,5.8
						c17.5,23.3-20.4,119.5-37.9,161.8C1212.7,958,1222.9,962.3,1236,953.6z M1174.8,816.5c-158.9,67.1-332.4,100.6-489.9,100.6
						c-233.3,0-459.2-64.2-641.5-170.6c-2.9-1.5-5.8-2.9-8.8-2.9c-10.2,0-16,11.7-5.8,21.9c169.1,153.1,393.6,244.9,641.5,244.9
						c177.9,0,383.5-55.4,524.9-160.4C1220,832.6,1199.5,806.3,1174.8,816.5z"/>
				</defs>
				<clipPath id="SVGID_00000152221977782727007410000017517532766035062443_">
					<use xlink:href="#SVGID_00000038412569500077158450000015988121802326740118_"  style="overflow:visible;"/>
				</clipPath>
				<g style="clip-path:url(#SVGID_00000152221977782727007410000017517532766035062443_);">
					<g>
						<defs>
							<path id="SVGID_00000108268430122050855440000000233753330720344742_" d="M1236,953.6c75.8-64.2,96.2-196.8,80.2-217.2
								c-7.3-8.7-42.3-17.5-86-17.5c-46.6,0-102,10.2-144.3,39.4c-13.1,8.7-10.2,20.4,2.9,19c45.2-5.9,147.3-17.5,166.2,5.8
								c17.5,23.3-20.4,119.5-37.9,161.8C1212.7,958,1222.9,962.3,1236,953.6z M1174.8,816.5c-158.9,67.1-332.4,100.6-489.9,100.6
								c-233.3,0-459.2-64.2-641.5-170.6c-2.9-1.5-5.8-2.9-8.8-2.9c-10.2,0-16,11.7-5.8,21.9c169.1,153.1,393.6,244.9,641.5,244.9
								c177.9,0,383.5-55.4,524.9-160.4C1220,832.6,1199.5,806.3,1174.8,816.5"/>
						</defs>
						<clipPath id="SVGID_00000144317194284519427300000009272526832296196997_">
							<use xlink:href="#SVGID_00000108268430122050855440000000233753330720344742_"  style="overflow:visible;"/>
						</clipPath>
						<g style="clip-path:url(#SVGID_00000144317194284519427300000009272526832296196997_);">
							
								<linearGradient id="SVGID_00000125584590809676813320000013250948899406127003_" gradientUnits="userSpaceOnUse" x1="18.6252" y1="864.6376" x2="1332.2256" y2="864.6376">
								<stop  offset="0" style="stop-color:#0C6BB3"/>
								<stop  offset="7.812500e-03" style="stop-color:#0C6BB3"/>
								<stop  offset="1.562500e-02" style="stop-color:#0C6CB3"/>
								<stop  offset="2.343750e-02" style="stop-color:#0D6CB4"/>
								<stop  offset="3.125000e-02" style="stop-color:#0D6DB4"/>
								<stop  offset="3.906250e-02" style="stop-color:#0E6EB5"/>
								<stop  offset="4.687500e-02" style="stop-color:#0E6EB5"/>
								<stop  offset="5.468750e-02" style="stop-color:#0F6FB6"/>
								<stop  offset="6.250000e-02" style="stop-color:#0F70B6"/>
								<stop  offset="7.031250e-02" style="stop-color:#1070B7"/>
								<stop  offset="7.812500e-02" style="stop-color:#1071B7"/>
								<stop  offset="8.593750e-02" style="stop-color:#1172B7"/>
								<stop  offset="9.375000e-02" style="stop-color:#1172B8"/>
								<stop  offset="0.1016" style="stop-color:#1273B8"/>
								<stop  offset="0.1094" style="stop-color:#1274B9"/>
								<stop  offset="0.1172" style="stop-color:#1374B9"/>
								<stop  offset="0.125" style="stop-color:#1375BA"/>
								<stop  offset="0.1328" style="stop-color:#1376BA"/>
								<stop  offset="0.1406" style="stop-color:#1476BA"/>
								<stop  offset="0.1484" style="stop-color:#1477BB"/>
								<stop  offset="0.1562" style="stop-color:#1577BB"/>
								<stop  offset="0.1641" style="stop-color:#1578BC"/>
								<stop  offset="0.1719" style="stop-color:#1679BC"/>
								<stop  offset="0.1797" style="stop-color:#1679BD"/>
								<stop  offset="0.1875" style="stop-color:#177ABD"/>
								<stop  offset="0.1953" style="stop-color:#177BBE"/>
								<stop  offset="0.2031" style="stop-color:#187BBE"/>
								<stop  offset="0.2109" style="stop-color:#187CBE"/>
								<stop  offset="0.2188" style="stop-color:#197DBF"/>
								<stop  offset="0.2266" style="stop-color:#197DBF"/>
								<stop  offset="0.2344" style="stop-color:#197EC0"/>
								<stop  offset="0.2422" style="stop-color:#1A7FC0"/>
								<stop  offset="0.25" style="stop-color:#1A7FC1"/>
								<stop  offset="0.2578" style="stop-color:#1B80C1"/>
								<stop  offset="0.2656" style="stop-color:#1B81C1"/>
								<stop  offset="0.2734" style="stop-color:#1C81C2"/>
								<stop  offset="0.2812" style="stop-color:#1C82C2"/>
								<stop  offset="0.2891" style="stop-color:#1D83C3"/>
								<stop  offset="0.2969" style="stop-color:#1D83C3"/>
								<stop  offset="0.3047" style="stop-color:#1E84C4"/>
								<stop  offset="0.3125" style="stop-color:#1E85C4"/>
								<stop  offset="0.3203" style="stop-color:#1F86C5"/>
								<stop  offset="0.3281" style="stop-color:#2087C6"/>
								<stop  offset="0.3359" style="stop-color:#2087C6"/>
								<stop  offset="0.3438" style="stop-color:#2188C7"/>
								<stop  offset="0.3516" style="stop-color:#2289C7"/>
								<stop  offset="0.3594" style="stop-color:#228AC8"/>
								<stop  offset="0.3672" style="stop-color:#238AC8"/>
								<stop  offset="0.375" style="stop-color:#238BC9"/>
								<stop  offset="0.3828" style="stop-color:#248CCA"/>
								<stop  offset="0.3906" style="stop-color:#258DCA"/>
								<stop  offset="0.3984" style="stop-color:#258ECB"/>
								<stop  offset="0.4062" style="stop-color:#268ECB"/>
								<stop  offset="0.4141" style="stop-color:#268FCC"/>
								<stop  offset="0.4219" style="stop-color:#2790CD"/>
								<stop  offset="0.4297" style="stop-color:#2891CD"/>
								<stop  offset="0.4375" style="stop-color:#2892CE"/>
								<stop  offset="0.4453" style="stop-color:#2992CE"/>
								<stop  offset="0.4531" style="stop-color:#2993CF"/>
								<stop  offset="0.4609" style="stop-color:#2A94CF"/>
								<stop  offset="0.4688" style="stop-color:#2B95D0"/>
								<stop  offset="0.4766" style="stop-color:#2B96D1"/>
								<stop  offset="0.4844" style="stop-color:#2C96D1"/>
								<stop  offset="0.4922" style="stop-color:#2C97D2"/>
								<stop  offset="0.5" style="stop-color:#2D98D2"/>
								<stop  offset="0.5078" style="stop-color:#2E99D3"/>
								<stop  offset="0.5156" style="stop-color:#2E99D3"/>
								<stop  offset="0.5234" style="stop-color:#2F9AD4"/>
								<stop  offset="0.5312" style="stop-color:#2F9BD5"/>
								<stop  offset="0.5391" style="stop-color:#309CD5"/>
								<stop  offset="0.5469" style="stop-color:#319DD6"/>
								<stop  offset="0.5547" style="stop-color:#319DD6"/>
								<stop  offset="0.5625" style="stop-color:#329ED7"/>
								<stop  offset="0.5703" style="stop-color:#329FD8"/>
								<stop  offset="0.5781" style="stop-color:#33A0D8"/>
								<stop  offset="0.5859" style="stop-color:#34A1D9"/>
								<stop  offset="0.5938" style="stop-color:#34A1D9"/>
								<stop  offset="0.6016" style="stop-color:#35A2DA"/>
								<stop  offset="0.6094" style="stop-color:#35A3DA"/>
								<stop  offset="0.6172" style="stop-color:#36A4DB"/>
								<stop  offset="0.625" style="stop-color:#37A4DC"/>
								<stop  offset="0.6328" style="stop-color:#37A5DC"/>
								<stop  offset="0.6406" style="stop-color:#38A6DD"/>
								<stop  offset="0.6484" style="stop-color:#38A7DD"/>
								<stop  offset="0.6562" style="stop-color:#39A8DE"/>
								<stop  offset="0.6641" style="stop-color:#3AA8DE"/>
								<stop  offset="0.6719" style="stop-color:#3AA9DF"/>
								<stop  offset="0.6797" style="stop-color:#3BAAE0"/>
								<stop  offset="0.6875" style="stop-color:#3CABE0"/>
								<stop  offset="0.6953" style="stop-color:#3CACE1"/>
								<stop  offset="0.7031" style="stop-color:#3DACE1"/>
								<stop  offset="0.7109" style="stop-color:#3DADE2"/>
								<stop  offset="0.7188" style="stop-color:#3EAEE3"/>
								<stop  offset="0.7266" style="stop-color:#3FAFE3"/>
								<stop  offset="0.7344" style="stop-color:#3FB0E4"/>
								<stop  offset="0.7422" style="stop-color:#40B0E4"/>
								<stop  offset="0.75" style="stop-color:#40B1E5"/>
								<stop  offset="0.7578" style="stop-color:#41B2E5"/>
								<stop  offset="0.7656" style="stop-color:#42B3E6"/>
								<stop  offset="0.7734" style="stop-color:#42B3E7"/>
								<stop  offset="0.7812" style="stop-color:#43B4E7"/>
								<stop  offset="0.7891" style="stop-color:#43B5E8"/>
								<stop  offset="0.7969" style="stop-color:#44B6E8"/>
								<stop  offset="0.8047" style="stop-color:#45B7E9"/>
								<stop  offset="0.8125" style="stop-color:#45B7E9"/>
								<stop  offset="0.8203" style="stop-color:#46B8EA"/>
								<stop  offset="0.8281" style="stop-color:#46B9EB"/>
								<stop  offset="0.8359" style="stop-color:#47BAEB"/>
								<stop  offset="0.8438" style="stop-color:#48BBEC"/>
								<stop  offset="0.8516" style="stop-color:#48BBEC"/>
								<stop  offset="0.8594" style="stop-color:#49BCED"/>
								<stop  offset="0.8672" style="stop-color:#49BDED"/>
								<stop  offset="0.875" style="stop-color:#4ABEEE"/>
								<stop  offset="1" style="stop-color:#4BBFEF"/>
							</linearGradient>
							<path style="fill:url(#SVGID_00000125584590809676813320000013250948899406127003_);" d="M18.6,1010.4V718.8h1313.6v291.6
								H18.6z"/>
						</g>
					</g>
				</g>
			</g>
		</g>
	</g>
</g>
</svg>
