<?xml version="1.0" encoding="utf-8"?>
<!-- Generator: Adobe Illustrator 25.4.1, SVG Export Plug-In . SVG Version: 6.00 Build 0)  -->
<svg version="1.1"
	 id="Layer_1" shape-rendering="geometricPrecision" text-rendering="geometricPrecision" image-rendering="optimizeQuality"
	 xmlns="http://www.w3.org/2000/svg" xmlns:xlink="http://www.w3.org/1999/xlink" x="0px" y="0px" viewBox="0 0 2533.6 1333.3"
	 style="enable-background:new 0 0 2533.6 1333.3;" xml:space="preserve">
<style type="text/css">
	.st0{fill:#FFFFFF;}
</style>
<g id="g10" transform="matrix(1.3333333,0,0,-1.3333333,0,275.17333)">
	<g id="g12" transform="scale(0.1)">
		<path id="path14" class="st0" d="M12431.9-2122.6c-740.2,0-1118.4-582.6-1118.4-1460.2c0-829.6,409-1452.3,1118.4-1452.3
			c802.3,0,1103.1,734.1,1103.1,1452.3c-0.6,749.8-378.6,1460.2-1103.3,1460.2 M10465.2,55.4h879.2v-2106.2h15.6
			c239.1,398.8,740.4,646.3,1187.8,646.3c1257,0,1866.5-989.7,1866.5-2194.6c0-1108.7-539.8-2153.9-1720.1-2153.9
			c-539.9,0-1118.3,135.4-1380.7,678.1h-15.2v-566.8h-833.1V55.3L10465.2,55.4"/>
		<path id="path16" class="st0" d="M17657-2896.8c-69.5,502.7-424.2,774.1-910.1,774.1c-455.3,0-1095.3-247.5-1095.3-1500.2
			c0-686.2,293-1412.5,1056.7-1412.5c509,0,863.6,351.5,948.7,942h879.2c-162.1-1069.2-802.1-1659.7-1827.9-1659.7
			c-1249.6,0-1936,917.4-1936,2130.2c0,1244.6,655.6,2218.1,1966.8,2218.1c925.5,0,1712.4-478.7,1797-1492h-877.8L17657-2896.8"/>
		<path id="path18" class="st0" d="M7391.3-5629.3H796.6L3876.2,55.4h6594.8L7391.3-5629.3"/>
	</g>
</g>
</svg>
