<?xml version="1.0" encoding="utf-8"?><svg version="1.1" id="Layer_1" xmlns="http://www.w3.org/2000/svg" xmlns:xlink="http://www.w3.org/1999/xlink" x="0px" y="0px" viewBox="0 0 122.88 122.88" style="enable-background:new 0 0 122.88 122.88" xml:space="preserve"><style type="text/css"><![CDATA[
	.st0{fill:none;stroke:#56BBE9;stroke-width:4.7999;stroke-miterlimit:2.6131;}
	.st1{fill:none;stroke:#B0D8E6;stroke-width:4.7999;stroke-miterlimit:2.6131;}
	.st2{fill:none;stroke:#E78DCC;stroke-width:4.7999;stroke-miterlimit:2.6131;}
	.st3{fill:none;stroke:#F6DD05;stroke-width:4.7999;stroke-miterlimit:2.6131;}
	.st4{fill:none;stroke:#ADDA1A;stroke-width:4.7999;stroke-miterlimit:2.6131;}
	.st5{fill:#231F20;}
	.st6{fill:none;stroke:#F1796E;stroke-width:4.7999;stroke-miterlimit:2.6131;}
	.st7{fill:none;stroke:#D81996;stroke-width:4.7999;stroke-miterlimit:2.6131;}
	.st8{fill:none;stroke:#EC2529;stroke-width:4.7999;stroke-miterlimit:2.6131;}
	.st9{fill:none;stroke:#D6E465;stroke-width:4.7999;stroke-miterlimit:2.6131;}
]]></style><g><path class="st5" d="M18.43,0h86.02c10.18,0,18.43,8.25,18.43,18.43v86.02c0,10.18-8.25,18.43-18.43,18.43H18.43 C8.25,122.88,0,114.63,0,104.45l0-86.02C0,8.25,8.25,0,18.43,0L18.43,0z"/><path class="st6" d="M18.72,57.84h15.36 M18.72,64.08h15.36"/><path class="st8" d="M18.72,70.32h15.36 M18.72,76.56h15.36 M18.72,82.8h15.36"/><path class="st3" d="M35.52,70.32h15.36 M35.52,76.56h15.36 M35.52,82.8h15.36"/><path class="st2" d="M52.32,57.84h15.36 M52.32,64.08h15.36 M52.32,51.6h15.36 M52.32,45.36h15.36"/><path class="st7" d="M52.32,70.32h15.36 M52.32,76.56h15.36 M52.32,82.8h15.36"/><path class="st9" d="M69.12,57.84h15.36 M69.12,64.08h15.36"/><path class="st4" d="M69.12,70.32h15.36 M69.12,76.56h15.36 M69.12,82.8h15.36"/><path class="st1" d="M85.92,57.84h15.36 M85.92,64.08h15.36 M85.92,51.6h15.36 M85.92,45.36h15.36 M85.92,39.12h15.36"/><path class="st0" d="M85.92,70.32h15.36 M85.92,76.56h15.36 M85.92,82.8h15.36"/></g></svg>