<?xml version="1.0" encoding="utf-8"?>
<!-- Generator: Adobe Illustrator 25.4.1, SVG Export Plug-In . SVG Version: 6.00 Build 0)  -->
<svg version="1.1"
	 id="Layer_1" shape-rendering="geometricPrecision" image-rendering="optimizeQuality" text-rendering="geometricPrecision"
	 xmlns="http://www.w3.org/2000/svg" xmlns:xlink="http://www.w3.org/1999/xlink" x="0px" y="0px" viewBox="0 0 1333.3 1333.3"
	 style="enable-background:new 0 0 1333.3 1333.3;" xml:space="preserve">
<style type="text/css">
	.st0{fill:#FFFFFF;}
</style>
<path id="Facebook_2_" class="st0" d="M1233.3,1140.4c0,33.7-27.4,61.1-61.1,61.1H890.1V772.8H1034l21.5-167.1H890.1V499.1
	c0-48.4,13.4-81.3,82.8-81.3l88.5,0V268.3c-15.3-2-67.8-6.6-128.9-6.6c-127.6,0-214.9,77.9-214.9,220.8v123.2H573.3v167.1h144.3
	v428.7H187.4c-33.8,0-61.1-27.4-61.1-61.1V155.6c0-33.8,27.4-61.1,61.1-61.1h984.8c33.7,0,61.1,27.3,61.1,61.1V1140.4z"/>
</svg>
