<?xml version="1.0" encoding="utf-8"?>
<!-- Generator: Adobe Illustrator 25.4.1, SVG Export Plug-In . SVG Version: 6.00 Build 0)  -->
<svg version="1.1"
	 id="Layer_1" shape-rendering="geometricPrecision" image-rendering="optimizeQuality" text-rendering="geometricPrecision"
	 xmlns="http://www.w3.org/2000/svg" xmlns:xlink="http://www.w3.org/1999/xlink" x="0px" y="0px" viewBox="0 0 1333.3 1333.3"
	 style="enable-background:new 0 0 1333.3 1333.3;" xml:space="preserve">
<style type="text/css">
	.st0{fill:#FFFFFF;}
</style>
<path id="Instagram_3_" class="st0" d="M1099.9,94.5H256.1c-72.7,0-131.6,58.8-131.6,131.3v844.4c0,72.5,58.9,131.3,131.6,131.3
	h843.8c72.7,0,131.6-58.8,131.6-131.3V225.8C1231.5,153.3,1172.6,94.5,1099.9,94.5z M920.2,267.5c0-19.1,15.5-34.6,34.6-34.6h103.8
	c19.1,0,34.6,15.5,34.6,34.6v103.8c0,19.1-15.5,34.6-34.6,34.6H954.8c-19.1,0-34.6-15.5-34.6-34.6V267.5z M679.3,436.9
	c117.6,0,212.9,95.1,212.9,212.4c0,117.3-95.3,212.4-212.9,212.4c-117.6,0-212.9-95.1-212.9-212.4
	C466.4,532,561.8,436.9,679.3,436.9z M1127.8,1063.1c0,19.1-15.5,34.6-34.6,34.6H262.9c-19.1,0-34.6-15.5-34.6-34.6V544.2h138.4
	c-18,25.9-24.1,74.3-24.1,105.1c0,185.3,151.1,336,336.7,336c185.7,0,336.8-150.7,336.8-336c0-30.7-4.4-78.4-26.7-105.1h138.4
	V1063.1z"/>
</svg>
