<svg xmlns="http://www.w3.org/2000/svg" viewBox="0 0 333333 333333" shape-rendering="geometricPrecision" text-rendering="geometricPrecision" image-rendering="optimizeQuality" fill-rule="evenodd" clip-rule="evenodd"><defs><linearGradient id="c" gradientUnits="userSpaceOnUse" x1="161777" y1="83494.9" x2="161777" y2="160738"><stop offset="0" stop-color="#0ad778"/><stop offset="1" stop-color="#01ef75"/></linearGradient><linearGradient id="a" gradientUnits="userSpaceOnUse" x1="157831" y1="171301" x2="157831" y2="240739"><stop offset="0" stop-color="#fe3e4a"/><stop offset="1" stop-color="#e31f50"/></linearGradient><linearGradient id="b" gradientUnits="userSpaceOnUse" x1="193991" y1="166714" x2="243116" y2="166714"><stop offset="0" stop-color="#febe00"/><stop offset="1" stop-color="#ffd900"/></linearGradient><linearGradient id="d" gradientUnits="userSpaceOnUse" x1="142634" y1="119650" x2="142634" y2="208786"><stop offset="0" stop-color="#02c4ff"/><stop offset="1" stop-color="#01e2ff"/></linearGradient></defs><path d="M166667 0c92048 0 166667 74619 166667 166667s-74619 166667-166667 166667S0 258715 0 166667 74619 0 166667 0z"/><path d="M211872 195848l-89298 51780c-2947 1709-4379 2427-7917 2821-735 82-10186-3669-10865-3676l81571-85265 26510 34339z" fill="url(#a)"/><path d="M211886 137567l26045 15039c3594 2076 6709 3598 9413 6917 4403 5405 3829 11600-2515 16817-2804 2306-6589 4219-9754 6055l-23275 13468-26439-34354 26526-23941z" fill="url(#b)"/><path d="M111641 82912c150-9 303-16 455-20 6531-185 9943 2745 15295 5899l84522 48794-26567 23941-73705-78615z" fill="url(#c)"/><path d="M112329 83143l73033 78365-81550 85243c-523-619-981-1305-1376-2047-2530-4763-1820-12094-1820-17469V105279c0-3599-268-7931 325-11684 832-5267 8384-11910 11388-10452z" fill="url(#d)"/></svg>