<?xml version="1.0" encoding="utf-8"?>
<!-- Generator: Adobe Illustrator 25.4.1, SVG Export Plug-In . SVG Version: 6.00 Build 0)  -->
<svg version="1.1"
	 id="Layer_1" shape-rendering="geometricPrecision" image-rendering="optimizeQuality" text-rendering="geometricPrecision"
	 xmlns="http://www.w3.org/2000/svg" xmlns:xlink="http://www.w3.org/1999/xlink" x="0px" y="0px" viewBox="0 0 1333.3 1333.3"
	 style="enable-background:new 0 0 1333.3 1333.3;" xml:space="preserve">
<style type="text/css">
	.st0{fill:#FFFFFF;}
</style>
<path class="st0" d="M565.6,522.7c0,103.7,0,207.3-0.1,311c99.7-52,199.4-104,299.1-156.1C764.9,626,665.2,574.4,565.6,522.7
	L565.6,522.7z M1222.3,887.6c-8.1,60.5-36.4,126.8-99.6,146.4c-69.4,18.5-142.6,13-213.8,17.9c-212.3,5.4-425.2,6.4-637.1-9.8
	c-64.5-5.2-116.4-58-127.2-120.7c-22.3-108.5-18.1-220.2-17.8-330.4c6.3-83.8-0.5-175.9,48.6-248.8c49.4-59.2,132.9-53.6,202.6-58.6
	c236.5-8.2,473.8-11,709.8,7.1c64.5,5.2,116.3,58,127.2,120.7c21.9,105.7,18,214.6,18,322.1C1231.8,785.1,1228.1,836.5,1222.3,887.6
	L1222.3,887.6z"/>
</svg>
